# xmcd
#
# Track frame offsets:
#	150
#	17486
#	37686
#	54100
#	70080
#	89383
#	103398
#	120191
#	135351
#	152067
#	165378
#
# Disc length: 2440 seconds
#
# Revision: 1
# Processed by: cddbd v1.5.2PL0 Copyright (c) Steve Scherf et al.
# Submitted via: audiograbber 1.83.01
#
DISCID=7409860b
DTITLE=Various Artist - Street June 09 CD2
DYEAR=2009
DGENRE=R&B
TTITLE0=Pyrelli - Shake It For Me (Main Mix)
TTITLE1=Don Diablo and Example - Hooligans (Doorley's Dubstep Remix)
TTITLE2=Party Dark - Is That U (Radio Edit)
TTITLE3=Skepta and Wiley Ft Boy Better Know - Too Many Man (Club Edit)
TTITLE4=Akon - We Don't Care
TTITLE5=Joe Budden Ft The Game and Dap-C - The Future (NGU Remix)
TTITLE6=Notes To Self - A Shot In The Dark (Yellow and Grey Remix)
TTITLE7=Reflection Eternal - Back Again (Dirty Version)
TTITLE8=Chubb Rock and Wordsmith - Old 2 The New (Clean Version)
TTITLE9=Funky DL - Effortless
TTITLE10=The Regiment - Old School Vibe (Clean Version)
EXTD=
EXTT0=
EXTT1=
EXTT2=
EXTT3=
EXTT4=
EXTT5=
EXTT6=
EXTT7=
EXTT8=
EXTT9=
EXTT10=
PLAYORDER=
